<svg height="512" viewBox="0 0 512 512" width="512" xmlns="http://www.w3.org/2000/svg"><g id="Flat"><path d="m159.969 279.984.031 64.016 8 16-24.9-7.206a32 32 0 0 1 -23.1-30.738v-74.056h7.969a32 32 0 0 1 32 31.984z" fill="#61311c"/><path d="m488 438.11a9.9 9.9 0 0 1 -9.89 9.89h-62.11l-5.65-96-1.5-25.58a142.943 142.943 0 0 1 1.19-28.72l5.96-41.7-96-80-5.43 1.36a66.112 66.112 0 0 1 -64.55-19.22c-.75-.8-1.47-1.63-2.17-2.47a65.918 65.918 0 0 1 -8.46-12.89l-7.39-14.78-48.91 21.74-23.09 10.26-16 24.33-9.49-1.9-30.51-6.1-5 15.67 9.6 55.33a35.094 35.094 0 0 1 -27.01 39.59 33.312 33.312 0 0 1 -12.36.41 33.978 33.978 0 0 1 -12.79-4.77 34.717 34.717 0 0 1 -15.32-21.56l-1.14-4.83-15.98-17.74 9.19-11.23-4.06-17.33a7.579 7.579 0 0 1 5.51-9.14l16.55-6.57 27.15-64.81a46.153 46.153 0 0 1 44.78-57.35h20.88l7.09-2.36 8.05-2.69a48.108 48.108 0 0 1 18.18-2.37l92.94 5.81 25.74 1.61 56 24 106.39 120.58a47.991 47.991 0 0 1 11.83 35.91l-8.65 99.51-5.57 64 26.53 13.27a9.886 9.886 0 0 1 5.47 8.84z" fill="#feb784"/><path d="m89.533 219.712 8.9 5.583a12.265 12.265 0 0 1 5.7 10.591 12.007 12.007 0 0 1 -14.807 11.634l-2.84-.711-17.254 40.523c-.021.048 33.37 8.489 53.14-21.547a47.916 47.916 0 0 0 3.9-44.931c-5.887-13.477-15.052-21.191-27.272-28.854z" fill="#6e3c26"/><path d="m183.09 149.74-23.09 10.26-16 24.33-9.49-1.9-30.51-30.57c-8.05-11.65-16.49-17.82-24-20.95l-.51-.1-1.15-1.46a46.153 46.153 0 0 1 44.78-57.35h20.88l7.09-2.36.91 2.36z" fill="#c378cb"/><path d="m470.22 252.49-8.65 99.51h-51.22l-1.5-25.58a142.943 142.943 0 0 1 1.19-28.72l5.96-41.7-96-80-5.43 1.36a66.112 66.112 0 0 1 -64.55-19.22c-.75-.8-1.47-1.63-2.17-2.47l.15-3.67 22.26-81.61 25.74 1.61 56 24 106.39 120.58a47.991 47.991 0 0 1 11.83 35.91z" fill="#bc4598"/><path d="m113.47 139.265a30.183 30.183 0 0 0 -13.907 14.348l-43.563 94.387v200h72l-8-16-32-16 8-144 48-88 16-24-8.886-11.848a30.182 30.182 0 0 0 -37.644-8.887z" fill="#fec093"/></g></svg>