<?xml version="1.0" encoding="UTF-8"?>
<svg xmlns="http://www.w3.org/2000/svg" id="Outline" viewBox="0 0 512 512" width="512" height="512"><path d="M288,160.05a41.338,41.338,0,0,1,5.349-17.805c6.8-11.988,18.9-19.509,35.966-22.354a8,8,0,1,0-2.63-15.782c-27.971,4.662-41.383,19.464-47.708,31.06a57.778,57.778,0,0,0-6.866,22.48c-26.075,43.9-74.117,55.614-86.259,57.929C177.953,209.765,152,187.362,152,144a8,8,0,0,0-16,0c0,46.368,25.267,72.379,37.481,82.244-12.923,21.327-27.811,33.356-44.326,35.771-27.268,3.982-51.271-19.446-51.51-19.684a8,8,0,0,0-11.3,11.326c1.1,1.1,25.21,24.821,56.4,24.821a60.282,60.282,0,0,0,8.6-.613c22.411-3.228,41.826-18.9,57.752-46.592,15.287-2.847,68.648-16.2,97.85-67.3A7.811,7.811,0,0,0,288,160.05Z"/><path d="M496,232c0-16.909-4.5-59.539-44.812-99.884l27.389-39.562A8,8,0,0,0,472,80H426.246l13.515-54.06A8,8,0,0,0,432,16H384a8,8,0,0,0-7.761,6.06l-14.1,56.41c-43.372-14.4-73.274-9-82.048-6.8-8.2-2.33-35.981-9.012-72.058-4.612-38.76,4.727-94.714,23.7-141.7,87.154C58.305,160.067,16,194.252,16,264c0,38.354,17.56,72.1,46.972,90.282,22.478,13.892,48.807,16.446,71.51,7.182C146.484,371.924,183.246,400,232,400c18.416,0,32.68-6.732,45.771-16.1,26.006,14.689,76.79,50.1,82.269,104.893A8,8,0,0,0,368,496h32a8,8,0,0,0,8-8c0-.884-.146-21.971-12.776-50.141a173.617,173.617,0,0,0-13.677-24.734,197.02,197.02,0,0,0,38.582-10.407c23.588-9.2,41.631-22.489,53.627-39.5,17.084-24.226,21.49-55.352,13.119-92.544A91.3,91.3,0,0,0,496,232ZM390.246,32h31.508L408.239,86.06A8,8,0,0,0,416,96h40.731L408,166.39V120a8,8,0,0,0-8-8H370.246ZM146.321,350.485A321.647,321.647,0,0,1,178.95,308.9c11.451,8.591,34.465,22.55,63.1,22.55C259.927,331.45,280,326,300.8,310.4c19.08-14.31,33.981-28.422,47.129-40.873,7.9-7.477,15.116-14.312,22.259-20.3,16.429,1.879,42.661,6.934,56.155,20.428a8,8,0,0,0,11.314-11.314c-12.236-12.237-31.125-18.865-49-22.435,15.755-9.271,33.44-13.92,58.714-11.933a8,8,0,1,0,1.256-15.95c-54.5-4.291-79.74,19.617-111.7,49.885-12.835,12.155-27.382,25.931-45.727,39.69-21.983,16.488-45.294,21.584-69.284,15.152a98.276,98.276,0,0,1-31.851-15.5,418.325,418.325,0,0,1,85.966-66.338,8,8,0,1,0-8.062-13.82c-88.4,51.566-129.838,115.711-137.633,128.74-18.375,8.276-40.236,6.41-58.952-5.159C46.723,325.43,32,296.768,32,264c0-27.9,7.442-52.727,22.121-73.8a112.631,112.631,0,0,1,12.311-14.82,77.154,77.154,0,0,0,5.413,14.194c7.1,14.209,22.233,33.05,53.957,42.114a8,8,0,1,0,4.4-15.384c-42.82-12.235-49.115-44.534-50.039-53.85,18.895-25.189,40.727-44.827,64.945-58.363a175.933,175.933,0,0,1,64.158-21.066,183.76,183.76,0,0,1,43.894-.2c-16.127,10.266-35.6,29.962-44.917,67.228a8,8,0,1,0,15.522,3.88c14.419-57.672,57.59-66.067,57.59-66.067.368-.062,30.639-9.4,76.889,6.183l-6,24A8,8,0,0,0,360,128h32v64a8,8,0,0,0,14.577,4.554l35.336-51.041C476.119,180.991,480,217.407,480,232a78.622,78.622,0,0,1-19.979,50.685C442.73,302.137,417.153,312,384,312c-46.546,0-72.7,22.711-95.785,42.749C270.136,370.445,254.521,384,232,384,190.606,384,158,360.262,146.321,350.485ZM375.005,480c-8.961-54.157-55.432-89.743-83.75-106.753,2.48-2.1,4.956-4.252,7.449-6.416q2.736-2.376,5.5-4.752c44.377,27.039,65.836,59.069,76.063,81.531A135.623,135.623,0,0,1,391.239,480Zm85.676-126c-9.72,13.782-34.211,37.553-89.839,44.54-12.673-15.662-29.964-32.075-53.527-47.134,17.19-13,37.239-23.4,66.685-23.4,47.233,0,73.914-18.862,87.979-34.685.732-.823,1.437-1.672,2.139-2.522C477.019,315.994,472.528,337.2,460.681,354Z"/><path d="M315.76,153.216a8,8,0,0,0-2.544,11.024c9.972,15.954,13.1,31.564,9.3,46.395-7.352,28.7-38.106,46.2-38.415,46.379a8,8,0,0,0,7.782,13.979c1.506-.836,36.97-20.888,46.1-56.272,4.974-19.272,1.2-39.11-11.2-58.961A8,8,0,0,0,315.76,153.216Z"/></svg>
