<svg id="Capa_1" enable-background="new 0 0 512 512" height="512" viewBox="0 0 512 512" width="512" xmlns="http://www.w3.org/2000/svg"><g><path d="m243.982 250.742h27.039c4.142 0 7.5-3.358 7.5-7.5s-3.358-7.5-7.5-7.5h-27.039c-4.142 0-7.5 3.358-7.5 7.5s3.358 7.5 7.5 7.5z"/><path d="m286.738 270.489c-3.816-1.61-8.215.18-9.824 3.997-3.303 7.833-10.925 12.894-19.419 12.894s-16.117-5.061-19.419-12.894c-1.609-3.816-6.007-5.606-9.824-3.997s-5.606 6.008-3.997 9.824c5.651 13.405 18.699 22.066 33.241 22.066s27.589-8.662 33.241-22.066c1.607-3.816-.182-8.215-3.999-9.824z"/><path d="m484.84 455.136h-100.264l-4.779-23.285c-3.104-15.115-10.938-28.328-21.74-38.241h61.833c4.142 0 7.5-3.358 7.5-7.5v-50.88c0-4.142-3.358-7.5-7.5-7.5s-7.5 3.358-7.5 7.5v43.38h-79.423c-7.345-2.549-15.184-3.94-23.277-3.94h-11.455v-7.005c48.606-1.367 89.325-34.801 101.715-79.85 4.317-.305 8.484-1.148 12.44-2.467v19.882c0 4.142 3.358 7.5 7.5 7.5s7.5-3.358 7.5-7.5v-27.888c12.05-9.314 19.832-23.896 19.832-40.27 0-3.792-.42-7.576-1.249-11.249-2.348-10.401-9.381-18.023-18.582-21.087v-53.506c0-83.389-67.841-151.23-151.23-151.23h-37.339-.001c-83.383 0-151.22 67.841-151.22 151.23v53.508c-9.194 3.066-16.224 10.69-18.571 21.086-.829 3.672-1.249 7.456-1.249 11.248 0 16.368 7.777 30.946 19.82 40.261v108.777c0 4.142 3.358 7.5 7.5 7.5h61.693c-6.769 6.21-12.39 13.753-16.399 22.336-1.753 3.753-.131 8.217 3.622 9.969 1.027.479 2.106.707 3.169.707 2.823 0 5.527-1.602 6.8-4.328 9.255-19.818 29.378-32.624 51.265-32.624h12.22c3.532 18.89 20.132 33.235 40.031 33.235 19.898 0 36.499-14.345 40.031-33.235h12.158c26.73 0 50.035 19.009 55.413 45.198l6.009 29.274c.697 3.42 3.722 5.994 7.348 5.994h48.086v26.864h-72.604c-5.818 0-10.552-4.734-10.552-10.552v-23.812c0-4.142-3.358-7.5-7.5-7.5s-7.5 3.358-7.5 7.5v23.812c0 3.762.824 7.333 2.29 10.552h-146.427c1.466-3.219 2.29-6.79 2.29-10.552v-23.812c0-4.142-3.358-7.5-7.5-7.5s-7.5 3.358-7.5 7.5v23.812c0 5.818-4.734 10.552-10.553 10.552h-.001-72.602v-26.864h47.974c.038 0 .077.006.116.006 3.487 0 6.611-2.446 7.339-5.995l2.99-14.58c.832-4.058-1.783-8.021-5.841-8.854s-8.021 1.783-8.854 5.841l-1.76 8.582h-100.257c-4.142 0-7.5 3.358-7.5 7.5v10.062c0 21.671 17.631 39.303 39.303 39.303h391.14c21.671 0 39.303-17.631 39.303-39.303v-10.062c-.001-4.142-3.359-7.5-7.501-7.5zm-96.011-196.114c0 51.661-42.029 93.69-93.69 93.69h-75.29c-51.661 0-93.69-42.029-93.69-93.69v-68.225c52.369-3.187 151.557-25.05 197.332-62.587 9.446 16.038 32.527 49.618 65.338 60.249zm43.393-21.95c0 17.505-12.602 32.114-29.208 35.253.535-4.361.815-8.8.815-13.303v-10.404c2.352-2.574 7.422-7.062 12.686-4.938 3.842 1.548 8.211-.309 9.761-4.15 1.549-3.841-.309-8.211-4.15-9.761-5.89-2.375-12.178-2.184-18.17.452.885-7.794 6.977-11.275 12.259-11.864 5.713-.635 13.102 1.802 15.126 10.77.585 2.589.881 5.263.881 7.945zm-156.061-222.072c75.118 0 136.23 61.112 136.23 136.23v52.542c-3.087.558-5.96 1.546-8.562 2.908v-23.919c0-3.493-2.411-6.523-5.814-7.308-39.124-9.026-65.51-61.92-65.77-62.449-1.064-2.175-3.114-3.703-5.503-4.101-2.389-.396-4.823.382-6.536 2.095-17.408 17.408-51.53 34.024-96.081 46.789-36.082 10.338-77.564 17.54-105.681 18.348-4.057.117-7.285 3.439-7.285 7.497v23.042c-2.601-1.36-5.472-2.347-8.558-2.903v-52.541c0-75.118 61.108-136.23 136.22-136.23zm-192.5 214.127c2.025-8.969 9.411-11.41 15.126-10.771 5.283.589 11.374 4.07 12.259 11.864-5.993-2.636-12.28-2.829-18.17-.452-3.841 1.55-5.699 5.92-4.15 9.761 1.55 3.842 5.922 5.698 9.761 4.15 5.253-2.12 10.313 2.346 12.671 4.922v10.419c0 4.502.28 8.94.815 13.301-16.599-3.145-29.194-17.75-29.194-35.25.001-2.681.298-5.355.882-7.944zm98.284 149.483h-79.344v-93.266c3.954 1.319 8.121 2.164 12.437 2.47 12.391 45.053 53.117 78.49 101.729 79.851v7.004h-11.517c-8.053.001-15.913 1.38-23.305 3.941zm75.556 29.295c-14.19 0-25.735-11.544-25.735-25.735v-14.458h51.469v14.458c.001 14.19-11.544 25.735-25.734 25.735zm-219.906 64.792v-2.562h35.793v26.865h-11.491c-13.4 0-24.302-10.902-24.302-24.303zm439.745 0c0 13.4-10.902 24.303-24.303 24.303h-11.49v-26.864h35.793z"/><path d="m339.7 219.963c-3.303 7.833-10.925 12.894-19.419 12.894s-16.117-5.061-19.419-12.894c-1.609-3.817-6.007-5.607-9.824-3.997-3.817 1.609-5.606 6.008-3.997 9.824 5.651 13.405 18.699 22.066 33.241 22.066s27.589-8.662 33.241-22.066c1.609-3.816-.18-8.215-3.997-9.824-3.82-1.609-8.217.181-9.826 3.997z"/><path d="m223.951 215.966c-3.818-1.609-8.215.181-9.824 3.997-3.303 7.833-10.925 12.894-19.419 12.894s-16.117-5.061-19.419-12.894c-1.609-3.817-6.007-5.607-9.824-3.997-3.817 1.609-5.606 6.008-3.997 9.824 5.651 13.405 18.699 22.066 33.241 22.066s27.589-8.662 33.241-22.066c1.608-3.816-.182-8.215-3.999-9.824z"/><path d="m408.337 54.348h16.443v16.443c0 4.142 3.358 7.5 7.5 7.5s7.5-3.358 7.5-7.5v-16.443h16.443c4.142 0 7.5-3.358 7.5-7.5s-3.358-7.5-7.5-7.5h-16.443v-16.443c0-4.142-3.358-7.5-7.5-7.5s-7.5 3.358-7.5 7.5v16.443h-16.443c-4.142 0-7.5 3.358-7.5 7.5s3.358 7.5 7.5 7.5z"/><path d="m32.43 201.516c0 4.142 3.358 7.5 7.5 7.5s7.5-3.358 7.5-7.5v-16.443h16.443c4.142 0 7.5-3.358 7.5-7.5s-3.358-7.5-7.5-7.5h-16.443v-16.443c0-4.142-3.358-7.5-7.5-7.5s-7.5 3.358-7.5 7.5v16.443h-16.444c-4.142 0-7.5 3.358-7.5 7.5s3.358 7.5 7.5 7.5h16.444z"/><path d="m496.014 348.314h-16.444v-16.443c0-4.142-3.358-7.5-7.5-7.5s-7.5 3.358-7.5 7.5v16.443h-16.443c-4.142 0-7.5 3.358-7.5 7.5s3.358 7.5 7.5 7.5h16.443v16.443c0 4.142 3.358 7.5 7.5 7.5s7.5-3.358 7.5-7.5v-16.443h16.443c4.142 0 7.5-3.358 7.5-7.5s-3.357-7.5-7.499-7.5z"/></g></svg>