<svg id="Capa_1" enable-background="new 0 0 510.369 510.369" height="512" viewBox="0 0 510.369 510.369" width="512" xmlns="http://www.w3.org/2000/svg"><g><path d="m255.188 390.969-26.001-14-33.114 17.828 14.223 26.415 18.891-10.171 26.001 14 26-13.999 18.884 10.17 14.225-26.414-33.109-17.83z"/><path d="m442.759 225.059c-3.092-47.528-23.954-91.727-58.743-124.456-126.453-116.948-327.203-19.31-316.437 152.142 9.192-.007 22.001.066 30.979-.213v90.075c8.609 207.798 304.686 207.712 313.252-.001v-104.19c9.126 2.55 22.795 3.214 32.086 4.143zm-60.948 117.548c-6.973 168.015-246.331 167.911-253.252-.001v-91.677c91.693-7.408 153.687-36.26 192.64-63.109 14.358 11.907 42.408 31.024 60.612 39.39zm-49.99-184.982-9.174-8.129c-62.554 49.904-140.429 70.458-224.372 73.03 21.156-180.412 272.625-192.825 311.879-15.9-30.698-10.836-65.466-37.62-78.333-49.001z"/><path d="m348.185 309.005v-30h-76v30.17l62.58 50.503 18.839-23.346-33.861-27.327z"/><path d="m238.185 279.005h-76v30h28.441l-33.861 27.327 18.839 23.346 62.581-50.503z"/><path d="m40.725 309.389-27.329-8.745-13.396 64.302 29.369 6.118 6.604-31.698 22.672 7.255 21.057-55.276-28.035-10.68z"/><path d="m469.645 309.389-10.943-28.724-28.035 10.68 21.058 55.276 22.671-7.255 6.604 31.698 29.369-6.118-13.396-64.302z"/><path d="m40.725 73.621 10.942 28.724 28.035-10.68-21.057-55.276-22.672 7.255-6.604-31.698-29.369 6.118 13.396 64.302z"/><path d="m469.645 73.621 27.328 8.745 13.396-64.302-29.369-6.118-6.604 31.698-22.671-7.255-21.058 55.276 28.035 10.68z"/></g></svg>