<svg height="512" viewBox="0 0 512 512" width="512" xmlns="http://www.w3.org/2000/svg"><g id="Flat"><path d="m392 144h16l-8-16v-64a32 32 0 0 0 -32-32h-32v24l24 8v48a32 32 0 0 0 32 32z" fill="#61311c"/><path d="m328 280 16 40h-80v-56l-8.75-5.83a34.253 34.253 0 0 1 -5.84-52.08l13.23-13.94 30.5-32.15v-41.56h-18.25a7.493 7.493 0 0 1 -7.43-7.55v-17.73l-11.46-8.71 11.46-20.93v-4.94a34.824 34.824 0 0 1 9.96-24.45 34.044 34.044 0 0 1 11.32-7.62 33.273 33.273 0 0 1 12.07-2.5 34.632 34.632 0 0 1 35.19 31.99v104a93.681 93.681 0 0 1 6.59 66.52l-1.02 3.74-9.21 33.74z" fill="#f7b488"/><path d="m323.8 87.2 7.364-7.491a12.274 12.274 0 0 0 3.122-11.588 11.883 11.883 0 0 0 -17.009-7.788l-2.591 1.353-25.948-35.178a33.341 33.341 0 0 1 12.726-2.508h15.457q.913 0 1.818.037c25.328 1.035 44.058 24.515 40.917 50.1l-.222 1.347c-2.954 17.924-10.797 31.664-23.434 44.516z" fill="#6e3c26"/><path d="m341.57 230.26-9.21 33.74h-68.36l-8.75-5.83a34.253 34.253 0 0 1 -5.84-52.08l13.23-13.94c9.34 14.5 30.74 34.1 78.93 38.11z" fill="#c378cb"/><path d="m408 473.24a14.756 14.756 0 0 1 -14.76 14.76h-237.66a51.58 51.58 0 0 1 -7.65-102.59l116.07-17.41v-48h80l11.27 28.16a66.21 66.21 0 0 1 -54.16 90.38l-13.11 1.46-45.24 2.83 21.24 1.52 47.14 3.36 13.37-13.37a14.764 14.764 0 0 1 18.04-2.22l40.42 24.25a14.711 14.711 0 0 0 7.59 2.1h2.68a14.764 14.764 0 0 1 14.76 14.77z" fill="#feb784"/><path d="m360 372.75a66.19 66.19 0 0 1 -58.89 65.79l-13.11 1.46-45.24 2.83 21.24 1.52v43.65h-108.42a51.58 51.58 0 0 1 -7.65-102.59l116.07-17.41v-48h80l11.27 28.16a66.652 66.652 0 0 1 4.73 24.59z" fill="#b53f92"/><rect fill="#a33484" height="16" rx="8" transform="matrix(.984 -.178 .178 .984 -60.458 55.948)" width="35.568" x="263.716" y="356.833"/><rect fill="#a33484" height="87.765" rx="8" transform="matrix(.071 -.997 .997 .071 -249.278 612.431)" width="16" x="196.229" y="396.192"/><path d="m288 184v120l-56 40h-48l-16 16 .333 22.333 65.542-9.833 76.59-29.7a40 40 0 0 0 23.483-24.643 40 40 0 0 0 2.052-12.647v-121.51a24 24 0 0 0 -24-24 24 24 0 0 0 -24 24z" fill="#fec093"/></g></svg>