<svg id="Layer_1" enable-background="new 0 0 512 512" height="512" viewBox="0 0 512 512" width="512" xmlns="http://www.w3.org/2000/svg"><g id="Flat"><path d="m488 322.6v13.4c0 4.4-3.6 8-8 8h-10.3c-3.1 0-5.7-2.5-5.7-5.7 0-.3 0-.7.1-1 .2-1.2.8-2.2 1.7-3.1l6.2-6.2-32-24-40-3.8-128-12.2h-40l-24-8-40-8-1.6 3.1c-4.4 8.7-13.7 13.8-23.3 12.7-5.4-.6-10.4-3.1-14.2-7l-10.4-10.4-14.5-14.4-26.4 2.6v16h-16l-5.3 5.4-9.7-10-5.2-.8c-11.2-2.2-18.5-13.2-16.2-24.4s14.5-20.6 25.6-18.3c0 0 10.5 2 26.6 5.4l26.6.1 24.9-4.1c4.5-.7 9-1.1 13.5-1.1 8.7 0 17.4 1.5 25.6 4.3 1.9.6 3.7 1.4 5.5 2.1l34.5 14.8 14-9.3c3.2-2.2 6.8-3.8 10.5-5 2.4-.7 4.9-1.2 7.5-1.5 1.3-.1 2.7-.2 4-.2 7.8 0 15.5 2.3 22 6.7l14 9.3 64 8 56 16 40 8h24c8.8 0 16 7.2 16 16l7.2 21.5c.5 1.7.8 3.4.8 5.1z" fill="#feb784"/><path d="m168 231.1v40.9l-1.6 3.1c-5.7 11.5-19.7 16.1-31.2 10.4-2.2-1.1-4.3-2.6-6-4.4l-10.7-10.7c9.1-8 19.9-21.7 23.9-43.7 8.7.1 17.3 1.6 25.6 4.4z" fill="#c378cb"/><path d="m400 272v28.2l-128-12.2h-32v-55.8c1.3-.1 2.7-.2 4-.2 7.8 0 15.5 2.3 22 6.7l14 9.3 64 8z" fill="#bc4598"/><path d="m104 248c0 8.8 7.2 16 16 16h64l-8 56-16 8v16h40l14.8-81.5c.8-4.3.5-8.7-.9-12.8-3.5-10.6-13.4-17.7-24.6-17.7h-69.3c-8.8 0-16 7.2-16 16z" fill="#fec093"/><path d="m76.6 184h27.4l16-8-2.6 10.3c-3.2 12.7-14.6 21.7-27.7 21.7-10.8 0-20.7 6.1-25.6 15.8l-.1.2h-16v-11.4c0-15.8 12.8-28.6 28.6-28.6z" fill="#61311c"/><path d="m65 239.1-3.5-5.3c-2.2-3.3-6.7-4.3-10.1-2-2.6 1.7-3.8 5-3 8l1.2 5.7-24.5 7.3c-2.5-9.6-2.1-25.5 12.8-33.9 21-11.8 39.5 13.1 39.5 13.1z" fill="#6e3c26"/></g></svg>