<svg id="Capa_1" enable-background="new 0 0 511.685 511.685" height="512" viewBox="0 0 511.685 511.685" width="512" xmlns="http://www.w3.org/2000/svg"><g><path d="m158.599 422.356c-4.028-6.266-6.158-13.516-6.158-20.966v-71.152c0-6.823 1.188-13.533 3.529-19.943l39.405-107.866c1.421-3.891-.58-8.196-4.471-9.618-3.887-1.415-8.196.581-9.618 4.472l-39.405 107.866c-2.946 8.063-4.44 16.505-4.44 25.09v52.979l-103.407 36.112c-3.911 1.366-5.974 5.644-4.608 9.554 1.08 3.093 3.98 5.029 7.081 5.029.82 0 1.655-.136 2.473-.421l98.462-34.388v2.285c0 10.333 2.953 20.388 8.541 29.077 1.434 2.229 3.849 3.445 6.315 3.445 1.389 0 2.794-.386 4.049-1.192 3.484-2.239 4.492-6.88 2.252-10.363z"/><path d="m349.958 497.884-79.742-51.523c-4.305-2.78-6.874-7.5-6.874-12.625v-209.008-.001c0-3.07 2.498-5.567 5.568-5.567 2.458 0 4.596 1.578 5.32 3.927l25.068 81.294c.223.722.336 1.472.336 2.227v17.736c0 4.143 3.357 7.5 7.5 7.5s7.5-3.357 7.5-7.5v-17.736c0-2.255-.337-4.492-1.002-6.647l-25.068-81.293c-2.675-8.677-10.574-14.507-19.654-14.507-1.932 0-3.794.287-5.568.787v-89.914c0-5.619 4.572-10.19 10.191-10.19 4.262 0 8.108 2.69 9.571 6.693l72.609 198.759c2.342 6.408 3.528 13.118 3.528 19.943v1.596c0 4.143 3.357 7.5 7.5 7.5s7.5-3.357 7.5-7.5v-1.596c0-8.586-1.493-17.028-4.438-25.09l-72.609-198.76c-3.616-9.896-13.125-16.546-23.661-16.546-6.889 0-13.139 2.782-17.691 7.278-4.552-4.496-10.802-7.278-17.691-7.278-10.537 0-20.046 6.649-23.661 16.547l-22.169 60.686c-1.421 3.891.58 8.196 4.471 9.618 3.89 1.419 8.197-.581 9.618-4.472l22.169-60.686c1.463-4.003 5.31-6.693 9.572-6.693 5.619 0 10.191 4.571 10.191 10.19v89.914c-1.774-.5-3.636-.787-5.568-.787-9.081 0-16.979 5.83-19.655 14.507l-25.069 81.295c-.664 2.155-1.001 4.392-1.001 6.646v17.736c0 4.143 3.358 7.5 7.5 7.5s7.5-3.357 7.5-7.5v-17.736c0-.756.113-1.506.335-2.228l25.068-81.293c.724-2.349 2.863-3.927 5.321-3.927 3.07 0 5.568 2.497 5.568 5.567v.001 209.008c0 5.125-2.57 9.845-6.874 12.625l-79.742 51.523c-3.479 2.248-4.477 6.891-2.229 10.37 1.435 2.221 3.845 3.431 6.306 3.431 1.395 0 2.805-.389 4.063-1.201l79.742-51.523c2.352-1.52 4.434-3.338 6.234-5.374 1.799 2.036 3.881 3.854 6.233 5.374l79.742 51.523c1.259.813 2.669 1.201 4.063 1.201 2.461 0 4.871-1.21 6.307-3.431 2.25-3.479 1.252-8.122-2.228-10.37z"/><path d="m477.651 419.33-103.408-36.115v-19.419c0-4.143-3.357-7.5-7.5-7.5s-7.5 3.357-7.5 7.5v37.594c0 7.45-2.129 14.7-6.157 20.966-2.24 3.484-1.231 8.124 2.253 10.364 1.255.807 2.66 1.192 4.049 1.192 2.467 0 4.883-1.216 6.315-3.445 5.587-8.69 8.54-18.745 8.54-29.077v-2.285l98.463 34.387c.818.285 1.652.421 2.473.421 3.1 0 6.001-1.938 7.081-5.029 1.365-3.91-.698-8.187-4.609-9.554z"/><path d="m427.019 130.596c-3.976 11.472-10.24 21.834-18.62 30.799l-50.881 54.426c-2.829 3.026-2.669 7.772.356 10.601 1.446 1.353 3.285 2.021 5.12 2.021 2.005 0 4.004-.799 5.48-2.378l50.882-54.427c9.822-10.508 17.169-22.664 21.836-36.13 1.356-3.914-.717-8.187-4.631-9.543-3.917-1.354-8.185.718-9.542 4.631z"/><path d="m143.448 225.546c1.475 1.556 3.457 2.34 5.444 2.34 1.853 0 3.708-.683 5.159-2.058 3.006-2.85 3.132-7.597.282-10.603l-51.04-53.83c-32.729-34.52-31.657-87.6 2.44-120.842 34.951-34.076 91.878-34.133 126.9-.129l11.693 11.354c6.315 6.129 16.197 6.12 22.498-.023l11.351-11.066c35.023-34.144 92.01-34.144 127.029-.003l.327.319c16.499 16.086 25.8 37.469 26.188 60.211.07 4.099 3.414 7.372 7.496 7.372.044 0 .088 0 .131-.001 4.142-.071 7.441-3.485 7.371-7.627-.457-26.724-11.365-51.83-30.713-70.692l-.327-.319c-40.797-39.773-107.179-39.775-147.974 0l-11.35 11.065c-.442.43-1.136.432-1.579.002l-11.693-11.354c-40.792-39.608-107.105-39.542-147.818.152-19.276 18.792-30.186 43.789-30.722 70.385-.536 26.6 9.361 51.998 27.868 71.518z"/></g></svg>