<?xml version="1.0" encoding="iso-8859-1"?>
<!-- Generator: Adobe Illustrator 19.0.0, SVG Export Plug-In . SVG Version: 6.00 Build 0)  -->
<svg version="1.1" id="Layer_1" xmlns="http://www.w3.org/2000/svg" xmlns:xlink="http://www.w3.org/1999/xlink" x="0px" y="0px"
	 viewBox="0 0 512.001 512.001" style="enable-background:new 0 0 512.001 512.001;" xml:space="preserve">
<g>
	<g>
		<path d="M492.857,158.906h5.316c5.054,0,9.15-4.097,9.15-9.15s-4.095-9.15-9.15-9.15h-13.697
			c-9.372-18.48-20.917-35.676-34.303-51.251l55.024-65.918c2.275-2.727,2.769-6.524,1.263-9.74
			c-1.504-3.217-4.736-5.273-8.287-5.273H387.835c-5.054,0-9.15,4.097-9.15,9.15s4.095,9.15,9.15,9.15h90.782L437.651,75.8
			C391.239,29.017,326.947,0,256.001,0C114.841,0,0,114.841,0,256.001s114.841,256.001,256.001,256.001
			S512.001,397.16,512.001,256.001C512,221.648,505.183,188.864,492.857,158.906z M438.274,103.609
			c9.602,11.467,18.142,23.85,25.474,36.997h-56.356L438.274,103.609z M256.001,493.701c-131.069,0-237.702-106.631-237.702-237.7
			S124.932,18.299,256.001,18.299c66.494,0,126.687,27.456,169.87,71.613l-45.06,53.98c-2.275,2.727-2.769,6.524-1.263,9.74
			c1.504,3.217,4.736,5.273,8.287,5.273h85.116c13.327,29.66,20.751,62.526,20.751,97.095
			C493.701,387.07,387.068,493.701,256.001,493.701z"/>
	</g>
</g>
<g>
	<g>
		<path d="M411.626,252.865c-4.333-2.591-9.955-1.177-12.547,3.162c-8.265,13.834-22.821,22.094-38.938,22.094
			c-16.115,0-30.67-8.26-38.936-22.094c-2.591-4.337-8.209-5.751-12.547-3.162c-4.338,2.592-5.753,8.209-3.162,12.547
			c11.6,19.415,32.028,31.007,54.645,31.007c0.001,0-0.001,0,0.001,0c22.615,0,43.046-11.593,54.646-31.007
			C417.379,261.076,415.964,255.458,411.626,252.865z"/>
	</g>
</g>
<g>
	<g>
		<path d="M203.342,252.867c-4.338-2.591-9.955-1.175-12.547,3.162c-8.265,13.834-22.82,22.093-38.936,22.094
			c-16.117,0-30.673-8.26-38.938-22.094c-2.59-4.337-8.208-5.751-12.547-3.162c-4.338,2.592-5.753,8.209-3.162,12.547
			c11.602,19.417,32.029,31.007,54.647,31.007c22.618-0.001,43.046-11.592,54.645-31.007
			C209.095,261.076,207.68,255.458,203.342,252.867z"/>
	</g>
</g>
<g>
	<g>
		<path d="M379.017,340.286c-7.046-12.482-19.093-21.479-33.049-24.68c-58.857-13.511-121.079-13.512-179.939,0
			c-13.954,3.205-25.998,12.198-33.042,24.676c-7.068,12.52-8.554,27.527-4.084,41.141c0.134,0.415,0.279,0.83,0.424,1.244
			c0.006,0.017,0.045,0.132,0.052,0.149l0.294,0.827c4.654,12.941,14.473,23.59,26.981,29.282c0.13,0.066,0.263,0.128,0.399,0.189
			c10.167,4.521,21.276,5.6,32.127,3.117c43.715-10.023,89.924-10.023,133.639,0c3.803,0.87,7.637,1.303,11.453,1.303
			c7.067,0,14.067-1.485,20.669-4.421c0.134-0.06,0.268-0.123,0.399-0.189c12.508-5.692,22.33-16.342,26.989-29.302l0.307-0.861
			c0.155-0.442,0.309-0.894,0.451-1.336C387.565,367.796,386.081,352.804,379.017,340.286z M170.123,333.441
			c56.183-12.897,115.571-12.897,171.752,0c9.041,2.074,16.54,7.656,21.135,15.725c-5.087-3.401-10.825-5.926-17.041-7.357
			c-58.861-13.513-121.081-13.513-179.942,0c-6.214,1.429-11.949,3.954-17.036,7.355C153.584,341.1,161.082,335.518,170.123,333.441
			z M185.096,398.394c-3.125,0.715-6.283,0.947-9.406,0.747c10.399-12.027,25.699-19.223,41.849-19.223
			c11.818,0,23.05,3.662,32.531,10.583C228.197,390.905,206.365,393.518,185.096,398.394z M326.906,398.396
			c-21.271-4.877-43.093-7.489-64.968-7.894c9.48-6.921,20.704-10.583,32.5-10.583c16.157,0,31.468,7.2,41.867,19.223
			C333.184,399.341,330.028,399.11,326.906,398.396z M354.245,392.345c-13.723-19.092-36.089-30.725-59.806-30.725
			c-13.738,0-26.898,3.726-38.434,10.829c-11.539-7.105-24.71-10.829-38.464-10.829c-23.706,0-46.06,11.625-59.787,30.725
			c-4.581-3.548-8.197-8.274-10.388-13.679c4.123-9.629,12.436-16.65,22.758-19.022c56.181-12.898,115.57-12.898,171.745-0.001
			c10.328,2.376,18.643,9.396,22.764,19.019C362.439,384.073,358.823,388.798,354.245,392.345z"/>
	</g>
</g>
<g>
	<g>
		<path d="M357.941,177.35h-31.574l38.599-46.241c2.275-2.727,2.769-6.524,1.263-9.74c-1.504-3.217-4.736-5.273-8.287-5.273h-51.13
			c-5.054,0-9.15,4.097-9.15,9.15c0,5.053,4.095,9.15,9.15,9.15h31.574l-38.599,46.241c-2.275,2.727-2.769,6.524-1.263,9.74
			c1.504,3.217,4.736,5.273,8.287,5.273h51.13c5.054,0,9.15-4.097,9.15-9.15S362.995,177.35,357.941,177.35z"/>
	</g>
</g>
<g>
</g>
<g>
</g>
<g>
</g>
<g>
</g>
<g>
</g>
<g>
</g>
<g>
</g>
<g>
</g>
<g>
</g>
<g>
</g>
<g>
</g>
<g>
</g>
<g>
</g>
<g>
</g>
<g>
</g>
</svg>
