<?xml version="1.0" encoding="iso-8859-1"?>
<!-- Generator: Adobe Illustrator 19.0.0, SVG Export Plug-In . SVG Version: 6.00 Build 0)  -->
<svg version="1.1" id="Capa_1" xmlns="http://www.w3.org/2000/svg" xmlns:xlink="http://www.w3.org/1999/xlink" x="0px" y="0px"
	 viewBox="0 0 512 512" style="enable-background:new 0 0 512 512;" xml:space="preserve">
<g>
	<g>
		<path d="M475.038,494.93c-1.86-1.861-4.44-2.93-7.07-2.93s-5.21,1.07-7.07,2.93s-2.93,4.44-2.93,7.07s1.071,5.21,2.93,7.069
			c1.86,1.861,4.44,2.931,7.07,2.931s5.21-1.07,7.07-2.931c1.86-1.859,2.93-4.439,2.93-7.069S476.897,496.79,475.038,494.93z"/>
	</g>
</g>
<g>
	<g>
		<path d="M284.257,0C177.844,0,91.197,86.258,90.553,192.523L34.838,322.685c-1.322,3.088-1.005,6.635,0.846,9.441
			c1.852,2.805,4.988,4.493,8.348,4.493h64.934v47.173c0,32.675,26.583,59.258,59.258,59.258h33.854
			c10.476,0,18.998,8.522,18.998,18.998V502c0,5.522,4.478,10,10,10c5.522,0,10-4.478,9.999-10v-39.952
			c0-21.504-17.494-38.998-38.998-38.998h-33.854c-21.647,0-39.258-17.612-39.258-39.258v-57.173c0-5.522-4.478-10-10-10H59.19
			l50.552-118.102c0.533-1.244,0.807-2.582,0.807-3.935v-0.874C110.549,97.925,188.473,20,284.257,20
			s173.708,77.925,173.708,173.708v268.209c0,5.522,4.478,10,10,10c5.522,0,10-4.478,10-10V193.708
			C477.965,86.897,391.068,0,284.257,0z"/>
	</g>
</g>
<g>
	<g>
		<path d="M324.764,96.61l-0.6-0.043c-5.526-0.394-10.288,3.769-10.673,9.278c-0.385,5.509,3.768,10.288,9.278,10.673l0.492,0.036
			c0.256,0.02,0.51,0.029,0.762,0.029c5.182,0,9.566-3.999,9.962-9.251C334.4,101.825,330.271,97.025,324.764,96.61z"/>
	</g>
</g>
<g>
	<g>
		<path d="M405.941,178.354c-2.123-30.797-20.681-58.624-48.43-72.622c-4.931-2.489-10.946-0.507-13.433,4.424
			c-2.487,4.931-0.506,10.945,4.425,13.432c21.481,10.836,35.844,32.348,37.484,56.141c1.14,16.532-3.711,32.86-13.657,45.979
			c-9.181,12.107-22.293,20.903-36.92,24.769c-4.388,1.16-7.445,5.129-7.445,9.668v40.233c0,5.514-4.486,10-10,10
			c-5.514,0-10-4.486-10-10v-43.233c0-12.349,8.462-22.867,20.578-25.577c23.379-5.23,39.146-26.453,37.492-50.464
			c-1.642-23.803-20.83-42.99-44.635-44.632c-13.555-0.931-26.443,3.626-36.31,12.835c-9.876,9.219-15.314,21.733-15.314,35.235
			c0,5.514-4.486,10-10,10c-5.514,0-10-4.486-10-10c0-18.829,7.898-37.001,21.669-49.855c6.184-5.773,13.207-10.28,20.875-13.394
			c5.117-2.078,7.58-7.911,5.502-13.028c-2.077-5.117-7.91-7.581-13.027-5.502c-9.939,4.037-19.022,9.859-26.997,17.304
			c-17.808,16.622-28.021,40.123-28.021,64.475c0,16.542,13.458,30,30,30s30-13.458,30-30c0-7.898,3.183-15.219,8.962-20.614
			c5.77-5.386,13.318-8.054,21.288-7.503c13.896,0.958,25.098,12.159,26.056,26.055c0.971,14.078-8.242,26.514-21.905,29.571
			c-21.321,4.768-36.212,23.312-36.212,45.094v43.233c0,16.542,13.458,30,30,30s30-13.458,29.999-30v-32.896
			c15.904-5.773,30.016-16.125,40.302-29.69C401.136,220.819,407.413,199.71,405.941,178.354z"/>
	</g>
</g>
<g>
	<g>
		<path d="M317.966,343.99c-16.542,0-30,13.458-30,30s13.458,30,30,30s30-13.458,30-30S334.508,343.99,317.966,343.99z
			 M317.966,383.99c-5.514,0-10-4.486-10-10c0-5.514,4.486-10,10-10c5.514,0,10,4.486,10,10
			C327.966,379.504,323.48,383.99,317.966,383.99z"/>
	</g>
</g>
<g>
</g>
<g>
</g>
<g>
</g>
<g>
</g>
<g>
</g>
<g>
</g>
<g>
</g>
<g>
</g>
<g>
</g>
<g>
</g>
<g>
</g>
<g>
</g>
<g>
</g>
<g>
</g>
<g>
</g>
</svg>
