<svg height="512" viewBox="0 0 512 512" width="512" xmlns="http://www.w3.org/2000/svg"><g id="Flat"><path d="m272 76h-16v16h16v24a24 24 0 0 0 24 24v-40a24 24 0 0 0 -24-24z" fill="#61311c"/><path d="m288 176 30.45-36.53a41.239 41.239 0 0 0 -2.52-55.54l-43.93-43.93-6.63-13.27a4.957 4.957 0 0 0 -4.43-2.73 4.951 4.951 0 0 0 -4.94 4.94 4.938 4.938 0 0 0 -4.94-4.94 4.863 4.863 0 0 0 -2.6.74 4.954 4.954 0 0 0 -1.83 1.99l-6.63 13.27-43.93 43.93a41.236 41.236 0 0 0 -2.52 55.54l30.45 36.53 8 24v16l-16 32-53.71 40.28a25.719 25.719 0 0 0 8.04 45.22l37.48 11.24 24.19 7.26 16 16h8v120h32v-16l-8-16 4.67-56 3.33-40 8-80v-11.16a95.445 95.445 0 0 0 -16-52.84v-16zm-68.92 142.77-27.08-6.77 64-32v48zm48.92-174.77v-20h-24v20h-12l-24-32 48-56 48 56-24 32z" fill="#fec093"/><path d="m232 144v16l-5.4 10.805a24.594 24.594 0 0 0 -2.6 11 24.6 24.6 0 0 0 7.207 17.4l.793.795h48l.793-.793a24.6 24.6 0 0 0 7.207-17.4 24.594 24.594 0 0 0 -2.6-11l-5.4-10.807v-16h-8l-5.47 16.411a11.1 11.1 0 0 1 -10.53 7.589 11.1 11.1 0 0 1 -10.53-7.589l-5.47-16.411z" fill="#c378cb"/><path d="m296 268.84v11.16l-8 80-3.33 40h-28.67v-120l-64 32 27.08 6.77-3.08 1.23-8 24-.19.74-37.48-11.24a25.726 25.726 0 0 1 -8.04-45.22l53.71-40.28 4-8h71.52a95.129 95.129 0 0 1 4.48 28.84z" fill="#bc4598"/><path d="m276 96v16a20 20 0 0 1 -40 0v-16a20 20 0 0 1 34.14-14.14 20.031 20.031 0 0 1 5.84 13.53c.02.2.02.41.02.61z" fill="#fec093"/><path d="m275.98 95.39v7.64a28.034 28.034 0 0 1 -12.23-10.53c-10.75 7.75-22.27 10.39-27.75 10.53v-7.03a20 20 0 0 1 34.14-14.14 20.031 20.031 0 0 1 5.84 13.53z" fill="#6e3c26"/><rect fill="#f5a76e" height="27.061" rx="8" width="16" x="248" y="28.939"/></g></svg>