<?xml version="1.0"?>
<svg xmlns="http://www.w3.org/2000/svg" viewBox="0 0 512 512" width="512" height="512"><g id="Flat"><path d="M73.824,116.653l28.3-2.692a31.133,31.133,0,0,1,14.165,1.953h0a31.119,31.119,0,0,1,19.155,22.26l8.921,40.053,12.04,13.231L126.56,179.921A32,32,0,0,1,107.3,158.752L104.409,148.5a16,16,0,0,0-16.915-11.588l-22.323,2.123Z" style="fill:#61311c"/><path d="M488,376v17.86a6.146,6.146,0,0,1-6.14,6.14,6.18,6.18,0,0,1-3.41-1.03L456,384l-72-4.36L192,368l-40-8-48-16L63.071,316.714A31.992,31.992,0,0,1,52.2,304.4L48,296l-7.76-5.18a36.456,36.456,0,0,1-11.62-48.1l13.65-24.46L48,208V170.59l-19.7-2.21,1.74-19.75L24,141.43l13.41-10.75,1.53-6.29c4.96-16.61,23.49-21.37,38.36-15.21,11.15,4.62,20.32,15.2,19.29,27.71-1.26,15.16-12.06,26.13-16.59,33.7l21.68,98.97L104,280l24,16,20.32-7.62c1.25-.47,2.51-.89,3.77-1.27A56.007,56.007,0,0,1,216,312l80,24h40l96,16,17.9-11.93a8,8,0,0,1,10.68,1.66Z" style="fill:#feb784"/><path d="M101.68,269.56,48,296l-7.76-5.18a36.456,36.456,0,0,1-11.62-48.1l13.65-24.46C72,240,93.333,232,93.333,232Z" style="fill:#c378cb"/><path d="M384,344v35.64L192,368l-40-8V288l.09-.89A56.007,56.007,0,0,1,216,312l80,24h40Z" style="fill:#bc4598"/><path d="M48,230.2h0a64.259,64.259,0,0,0,2.924,19.163L88,368,60.422,381.789A8,8,0,0,0,56,388.944V400h48a24.819,24.819,0,0,0,13.47-25.709L104,280,91.862,225.381A22.2,22.2,0,0,0,70.195,208h0A22.2,22.2,0,0,0,48,230.2Z" style="fill:#fec093"/><path d="M69.167,150.427c4.5-4.334,12.594-9.51,8.166-16.5-6.333-10-15.111.386-15.166.333L45.844,113.275c10.5-13.167,37.936-13.062,48.823,5.152C112,147.427,80,170.593,80,170.593S69.158,150.435,69.167,150.427Z" style="fill:#6e3c26"/></g></svg>
