<svg id="Layer_1_1_" enable-background="new 0 0 256 256" height="512" viewBox="0 0 256 256" width="512" xmlns="http://www.w3.org/2000/svg"><path d="m101.766 73.921 17.25 8.923c.068 3.802-2.416 7.295-5.93 9.354-5.183 3.036-11.846 1.296-14.882-3.887-2.901-4.951-1.092-11.19 3.562-14.39z" fill="#704c0f"/><path d="m110.787 88.246c.011-.007.023-.013.034-.02 1.405-.829 1.186-2.93-.322-3.553-4.021-1.66-7.612-4.258-9.854-7.466-.332-.475-.636-.97-.927-1.474.603-.671 1.283-1.286 2.048-1.813l17.25 8.923c.007.407-.026.808-.078 1.206-.02.161-.048.321-.076.48-.039.209-.088.417-.143.623-.126.492-.287.974-.491 1.444-.001.003-.002.006-.003.009-.988 2.267-2.831 4.24-5.135 5.591-3.439 2.016-7.781 1.836-11.19-.231-2.586-1.567-3.942-3.604-4.618-5.747 3.388 3.696 9.004 4.666 13.505 2.028z" fill="#5e400d"/><path d="m110.046 40.773c5.15-1.273 11.059-.668 11.059-.668l7.101-4.185 3.475 4.583s6.449-.165 9.396 1.253c3.362 1.618 6.31 6.734 7.805 9.923 1.214 2.589 1.379 5.284.954 7.962-.551 3.466-2.091 6.903-3.626 10.043-1.636 3.346-5.307 5.648-8.395 7.482-1.006.597-2.057 1.171-3.135 1.716-7.193-4.2-24.634-38.109-24.634-38.109z" fill="#f5d3a6"/><path d="m98.243 52.11c1.225-4.414 5.371-9.005 9.662-10.67.685-.266 1.405-.486 2.141-.668 0 .001 17.442 33.909 24.635 38.109-2.92 1.476-6.05 2.72-9.121 3.504-8.181 2.088-19.3-2.018-24.14-8.942-4.191-5.993-5.092-14.433-3.177-21.333z" fill="#704c0f"/><g fill="#5e400d"><path d="m103.429 59.584c1.95-5.303 6.463-9.163 10.412-11.681.201.37.407.746.62 1.136-3.768 2.422-8.042 6.086-9.843 10.983-1.687 4.585-2.025 10.273-1.912 15.017-.461-.515-.9-1.042-1.287-1.595-.007-.01-.013-.02-.02-.03.002-4.479.459-9.561 2.03-13.83z"/><path d="m117.528 71.443c2.248-2.32 3.913-5.296 5.138-8.174.273.445.547.886.821 1.326-1.239 2.725-2.879 5.492-5.048 7.73-2.736 2.823-5.943 5.59-8.754 7.86-.415-.204-.823-.417-1.224-.64 2.875-2.303 6.232-5.176 9.067-8.102z"/><path d="m111.906 81.16c3.342-1.045 7.16-2.474 10.106-4.245 2.371-1.425 4.301-3.575 5.803-5.733.265.378.527.741.788 1.101-1.548 2.147-3.514 4.262-5.938 5.72-2.593 1.559-5.779 2.847-8.757 3.851-.676-.203-1.342-.44-2.002-.694z"/></g><path d="m156.277 55.194-6.254 1.159c.055 1.094-.013 2.192-.187 3.288-.551 3.466-2.091 6.903-3.626 10.043-.714 1.46-1.826 2.712-3.097 3.823l.887 3.493 10.866 7.411 16.17-20.893z" fill="#f5d3a6"/><path d="m201.3 224.15-1.705-.853c-1.55-.775-3.421-.471-4.646.754-.616.616-1.015 1.415-1.138 2.277l-1.811 12.672-7.317 6.402c-.434.38-.683.928-.683 1.505v1.252c0 1.04.797 1.907 1.834 1.993l9.445.787c.466.039.93-.087 1.313-.355l6.915-4.84z" fill="#f0c792"/><path d="m179.361 42.298c-12.04-9.915-25.521-17.94-39.988-23.769-5.023-2.025-10.114-4.008-14.373-5.529-14-5-54-5-54-5l-31.446-2.075c-1.557.046-2.947.991-3.56 2.424-1.018 2.374.448 5.076 2.992 5.519l18.014 3.132-2.761 2.301c-1.463 1.219-1.092 3.558.676 4.265.688.275 1.463.233 2.117-.116l13.968-7.45 24.93 5.753c.713.164 1.433.296 2.157.395l20.913 2.852 41 24 32.397 5.356c-3.99-4.112-8.601-8.406-13.036-12.058z" fill="#f5d3a6"/><path d="m200.667 119.333c10.31-2.908 21.102-8.406 25.131-10.559-.595-1.924-1.196-3.849-1.798-5.774-2.055-6.575-7.149-15.683-12.438-24.133-5.625-8.986-11.803-16.924-19.165-24.512l-32.397-5.355-3.723 6.194c5.31 3.717 6.776 11.112 3.117 16.461l-.832 1.216c-3.223 4.71-9.348 6.446-14.562 4.129l-3 11 21.302 19.78c3.796 3.525 6.477 8.063 7.742 13.053 3.912.398 19.352 1.679 30.623-1.5z" fill="#7f8b4b"/><path d="m205.333 137c12.328-1.961 25.355-11.339 25.355-11.339-1.451-5.584-3.141-11.228-4.89-16.887-4.029 2.153-14.821 7.651-25.131 10.559-11.27 3.179-26.711 1.898-30.622 1.501.182.719.336 1.446.458 2.182.667 4.001.413 8.076-.711 11.924 0 0 20.875 4.393 35.541 2.06z" fill="#f5d3a6"/><path d="m235 150c-.526-7.885-2.157-16.046-4.312-24.339 0 0-13.027 9.378-25.355 11.339-14.667 2.333-35.542-2.06-35.542-2.06-.513 1.755-1.207 3.464-2.078 5.096l-.611 1.145c-2.038 3.822-4.972 7.093-8.551 9.533l-9.904 6.753c-4.427 3.018-8.64 6.338-12.61 9.936l-26.037 23.597-12.117 5.386 15.378 16.625 4.739-2.011 30.678-12.842c8.188-3.427 15.957-7.779 23.157-12.969l24.401-17.591 5.764 37.402-1.523 28.934c-.304 5.771 1.856 11.399 5.942 15.485 1.652 1.653 3.894 2.581 6.231 2.581 2.158 0 4.241-.792 5.854-2.226 4.209-3.741 7.043-8.785 8.051-14.326l.445-2.448s4-22 7-40 2-28 1-43z" fill="#514654"/><path d="m92.156 198.931-23.218 11.929-36.938 22.14-15 12-1.137 1.705c-1.224 1.836.092 4.295 2.299 4.295h7.609c.152 0 .304-.013.454-.038l4.284-.714c.928-.155 1.714-.772 2.085-1.637l2.406-5.611 50-18 28.26-11.989-15.378-16.625z" fill="#f5d3a6"/><path d="m68.938 210.86-9.57 5.736c-.08.41-.083.838.002 1.261.405 2.027 2.573 3.167 4.472 2.353l12.513-5.363-2.052 3.592c-.828 1.449.662 3.12 2.196 2.463 2.179-.934 4.069-2.432 5.475-4.34l14.052-19.07.392-.454-4.261 1.894z" fill="#f0c792"/><path d="m141 88-8 13-13 39-13 18-18 29-21.767 18.928c-.762.663-1.11 1.683-.912 2.673.35 1.751 2.223 2.737 3.865 2.033l10.814-4.634-1.774 3.104c-.716 1.253.572 2.697 1.898 2.128 1.883-.807 3.516-2.102 4.732-3.751l12.144-16.481 25-29 16.922-27.61c1.383-2.257 2.6-4.612 3.639-7.046l11.304-26.468z" fill="#f5d3a6"/><path d="m157.539 55.905-1.261-.711-6.254 1.159c.055 1.094-.013 2.192-.187 3.288-.551 3.466-2.091 6.903-3.626 10.043-.714 1.46-1.826 2.712-3.097 3.823l.886 3.493c4.685 2.082 10.134.85 13.523-2.829-1.644-7.543-1.024-13.852.016-18.266z" fill="#f0c792"/><path d="m166.341 93.691c-4.904-7.042-7.555-13.648-8.833-19.51-3.388 3.697-8.813 4.905-13.508 2.819l-3 11 21.302 19.78c3.796 3.525 6.477 8.063 7.742 13.053 2.84.288 11.759 1.041 20.747.216-8.057-7.404-17.118-16.828-24.45-27.358z" fill="#727d43"/><path d="m157.477 56.17c1.036-4.546 2.523-7.17 2.523-7.17l-3.723 6.194c.428.3.822.631 1.2.976z" fill="#727d43"/><path d="m171.488 157.591c8.564-4.104 14.855-11.45 17.766-20.109-10.387-.632-19.462-2.541-19.462-2.541-.513 1.755-1.207 3.464-2.078 5.096l-.611 1.145c-2.038 3.822-4.972 7.093-8.551 9.533l-9.904 6.753c-4.427 3.018-8.64 6.338-12.61 9.936l-16.804 15.229z" fill="#403742"/><path d="m170.044 120.834c.182.719.336 1.446.458 2.182.667 4.001.413 8.076-.711 11.924 0 0 9.076 1.909 19.462 2.541 1.386-4.123 2.015-8.54 1.742-13.053l-.205-3.379c-8.986.826-17.905.073-20.746-.215z" fill="#f0c792"/><path d="m234 189c-3 18-7 40-7 40l-.445 2.449c-1.007 5.541-3.842 10.584-8.051 14.326-1.613 1.434-3.696 2.226-5.854 2.226-2.337 0-4.578-.928-6.231-2.581-3.4-3.4-5.461-7.87-5.883-12.599l-.059 1.115c-.304 5.771 1.856 11.399 5.942 15.485 1.652 1.653 3.894 2.581 6.231 2.581 2.158 0 4.241-.792 5.854-2.226 4.209-3.741 7.043-8.785 8.051-14.326l.445-2.45s4-22 7-40c1.657-9.942 2.091-17.443 1.981-24.694-.091 6.065-.626 12.561-1.981 20.694z" fill="#403742"/><path d="m203.507 160.429-7.271 7.168 2.286 14.835c1.903-11.509 4.985-22.003 4.985-22.003z" fill="#403742"/></svg>